<svg xmlns="http://www.w3.org/2000/svg" xmlns:xlink="http://www.w3.org/1999/xlink" width="150" zoomAndPan="magnify" viewBox="0 0 112.5 37.5" height="50" preserveAspectRatio="xMidYMid meet" version="1.0"><defs><g/></defs><g fill="#000000" fill-opacity="1"><g transform="translate(5.119243, 26.120608)"><g><path d="M 5.640625 -14.3125 C 6.429688 -14.3125 7.179688 -14.1875 7.890625 -13.9375 C 8.597656 -13.695312 9.25 -13.359375 9.84375 -12.921875 C 10.445312 -12.484375 10.96875 -11.96875 11.40625 -11.375 C 11.84375 -10.78125 12.179688 -10.128906 12.421875 -9.421875 C 12.660156 -8.710938 12.78125 -7.96875 12.78125 -7.1875 C 12.78125 -6.382812 12.65625 -5.625 12.40625 -4.90625 C 12.164062 -4.1875 11.828125 -3.53125 11.390625 -2.9375 C 10.953125 -2.34375 10.429688 -1.820312 9.828125 -1.375 C 9.222656 -0.9375 8.5625 -0.597656 7.84375 -0.359375 C 7.132812 -0.117188 6.382812 0 5.59375 0 L 0.265625 0 L 0.265625 -14.3125 Z M 5.640625 -3.609375 C 6.117188 -3.609375 6.566406 -3.703125 6.984375 -3.890625 C 7.410156 -4.078125 7.785156 -4.332031 8.109375 -4.65625 C 8.429688 -4.988281 8.679688 -5.367188 8.859375 -5.796875 C 9.035156 -6.222656 9.125 -6.6875 9.125 -7.1875 C 9.125 -7.65625 9.035156 -8.097656 8.859375 -8.515625 C 8.679688 -8.941406 8.429688 -9.316406 8.109375 -9.640625 C 7.785156 -9.972656 7.410156 -10.226562 6.984375 -10.40625 C 6.566406 -10.59375 6.117188 -10.6875 5.640625 -10.6875 L 3.921875 -10.6875 L 3.921875 -3.609375 Z M 5.640625 -3.609375 "/></g></g></g><g fill="#000000" fill-opacity="1"><g transform="translate(18.467631, 26.120608)"><g><path d="M 0.6875 0 L 0.6875 -14.328125 L 4.4375 -14.328125 L 4.4375 0 Z M 0.6875 0 "/></g></g></g><g fill="#000000" fill-opacity="1"><g transform="translate(23.805035, 26.120608)"><g><path d="M 5.640625 -14.3125 C 6.429688 -14.3125 7.179688 -14.1875 7.890625 -13.9375 C 8.597656 -13.695312 9.25 -13.359375 9.84375 -12.921875 C 10.445312 -12.484375 10.96875 -11.96875 11.40625 -11.375 C 11.84375 -10.78125 12.179688 -10.128906 12.421875 -9.421875 C 12.660156 -8.710938 12.78125 -7.96875 12.78125 -7.1875 C 12.78125 -6.382812 12.65625 -5.625 12.40625 -4.90625 C 12.164062 -4.1875 11.828125 -3.53125 11.390625 -2.9375 C 10.953125 -2.34375 10.429688 -1.820312 9.828125 -1.375 C 9.222656 -0.9375 8.5625 -0.597656 7.84375 -0.359375 C 7.132812 -0.117188 6.382812 0 5.59375 0 L 0.265625 0 L 0.265625 -14.3125 Z M 5.640625 -3.609375 C 6.117188 -3.609375 6.566406 -3.703125 6.984375 -3.890625 C 7.410156 -4.078125 7.785156 -4.332031 8.109375 -4.65625 C 8.429688 -4.988281 8.679688 -5.367188 8.859375 -5.796875 C 9.035156 -6.222656 9.125 -6.6875 9.125 -7.1875 C 9.125 -7.65625 9.035156 -8.097656 8.859375 -8.515625 C 8.679688 -8.941406 8.429688 -9.316406 8.109375 -9.640625 C 7.785156 -9.972656 7.410156 -10.226562 6.984375 -10.40625 C 6.566406 -10.59375 6.117188 -10.6875 5.640625 -10.6875 L 3.921875 -10.6875 L 3.921875 -3.609375 Z M 5.640625 -3.609375 "/></g></g></g><g fill="#000000" fill-opacity="1"><g transform="translate(37.153423, 26.120608)"><g><path d="M 0.6875 0 L 0.6875 -14.328125 L 4.4375 -14.328125 L 4.4375 0 Z M 0.6875 0 "/></g></g></g><g fill="#dbd430" fill-opacity="1"><g transform="translate(47.00663, 26.120608)"><g><path d="M 0.265625 0 L 0.265625 -9.390625 C 0.265625 -10.066406 0.394531 -10.703125 0.65625 -11.296875 C 0.925781 -11.898438 1.289062 -12.425781 1.75 -12.875 C 2.21875 -13.332031 2.75 -13.6875 3.34375 -13.9375 C 3.945312 -14.195312 4.59375 -14.328125 5.28125 -14.328125 L 6.578125 -14.328125 C 7.265625 -14.328125 7.910156 -14.195312 8.515625 -13.9375 C 9.117188 -13.675781 9.648438 -13.316406 10.109375 -12.859375 C 10.566406 -12.398438 10.925781 -11.867188 11.1875 -11.265625 C 11.445312 -10.660156 11.578125 -10.019531 11.578125 -9.34375 L 11.578125 -8.5 C 11.578125 -7.8125 11.445312 -7.164062 11.1875 -6.5625 C 10.925781 -5.96875 10.566406 -5.441406 10.109375 -4.984375 C 9.648438 -4.535156 9.117188 -4.179688 8.515625 -3.921875 C 7.910156 -3.671875 7.265625 -3.546875 6.578125 -3.546875 L 3.953125 -3.546875 L 3.953125 0 Z M 7.90625 -9.34375 C 7.90625 -9.59375 7.84375 -9.816406 7.71875 -10.015625 C 7.601562 -10.222656 7.445312 -10.382812 7.25 -10.5 C 7.050781 -10.625 6.832031 -10.6875 6.59375 -10.6875 L 5.21875 -10.6875 C 4.976562 -10.6875 4.757812 -10.625 4.5625 -10.5 C 4.363281 -10.382812 4.203125 -10.222656 4.078125 -10.015625 C 3.960938 -9.816406 3.90625 -9.59375 3.90625 -9.34375 L 3.90625 -6.84375 L 6.59375 -6.84375 C 6.832031 -6.84375 7.050781 -6.921875 7.25 -7.078125 C 7.445312 -7.234375 7.601562 -7.425781 7.71875 -7.65625 C 7.84375 -7.882812 7.90625 -8.117188 7.90625 -8.359375 Z M 7.90625 -9.34375 "/></g></g></g><g fill="#dbd430" fill-opacity="1"><g transform="translate(59.018228, 26.120608)"><g><path d="M 9.8125 0.0625 C 9.269531 -0.0507812 8.773438 -0.253906 8.328125 -0.546875 C 7.878906 -0.847656 7.484375 -1.210938 7.140625 -1.640625 C 6.804688 -2.066406 6.546875 -2.535156 6.359375 -3.046875 C 6.179688 -3.554688 6.097656 -4.085938 6.109375 -4.640625 C 6.117188 -4.847656 6.078125 -5.035156 5.984375 -5.203125 C 5.898438 -5.367188 5.773438 -5.5 5.609375 -5.59375 C 5.441406 -5.695312 5.253906 -5.75 5.046875 -5.75 C 4.859375 -5.75 4.679688 -5.695312 4.515625 -5.59375 C 4.359375 -5.5 4.226562 -5.367188 4.125 -5.203125 C 4.03125 -5.046875 3.984375 -4.875 3.984375 -4.6875 C 3.984375 -4.476562 4.03125 -4.289062 4.125 -4.125 C 4.226562 -3.96875 4.359375 -3.835938 4.515625 -3.734375 C 4.679688 -3.640625 4.859375 -3.59375 5.046875 -3.59375 C 5.203125 -3.59375 5.347656 -3.617188 5.484375 -3.671875 C 5.617188 -3.734375 5.726562 -3.828125 5.8125 -3.953125 C 5.832031 -3.804688 5.867188 -3.613281 5.921875 -3.375 C 5.984375 -3.144531 6.078125 -2.878906 6.203125 -2.578125 C 6.335938 -2.285156 6.519531 -1.976562 6.75 -1.65625 C 6.976562 -1.332031 7.269531 -1.007812 7.625 -0.6875 C 7.25 -0.445312 6.847656 -0.257812 6.421875 -0.125 C 5.992188 0 5.535156 0.0625 5.046875 0.0625 C 4.421875 0.0625 3.816406 -0.0546875 3.234375 -0.296875 C 2.660156 -0.535156 2.148438 -0.875 1.703125 -1.3125 C 1.265625 -1.75 0.914062 -2.253906 0.65625 -2.828125 C 0.40625 -3.398438 0.28125 -4.019531 0.28125 -4.6875 C 0.28125 -5.34375 0.40625 -5.957031 0.65625 -6.53125 C 0.90625 -7.113281 1.242188 -7.625 1.671875 -8.0625 C 2.109375 -8.5 2.613281 -8.835938 3.1875 -9.078125 C 3.769531 -9.328125 4.390625 -9.453125 5.046875 -9.453125 C 5.710938 -9.453125 6.328125 -9.328125 6.890625 -9.078125 C 7.460938 -8.835938 7.96875 -8.5 8.40625 -8.0625 C 8.84375 -7.625 9.1875 -7.113281 9.4375 -6.53125 C 9.6875 -5.957031 9.8125 -5.34375 9.8125 -4.6875 Z M 9.8125 0.0625 "/></g></g></g><g fill="#dbd430" fill-opacity="1"><g transform="translate(69.400308, 26.120608)"><g><path d="M 0.203125 0 L 0.203125 -4.78125 C 0.203125 -5.414062 0.3125 -6.007812 0.53125 -6.5625 C 0.757812 -7.113281 1.082031 -7.601562 1.5 -8.03125 C 1.925781 -8.457031 2.4375 -8.789062 3.03125 -9.03125 C 3.632812 -9.269531 4.316406 -9.390625 5.078125 -9.390625 L 5.078125 -5.859375 C 4.609375 -5.859375 4.269531 -5.75 4.0625 -5.53125 C 3.851562 -5.3125 3.75 -5.054688 3.75 -4.765625 L 3.75 0 Z M 0.203125 0 "/></g></g></g><g fill="#dbd430" fill-opacity="1"><g transform="translate(74.981651, 26.120608)"><g><path d="M 4.828125 0.0625 C 4.179688 0.0625 3.570312 -0.0546875 3 -0.296875 C 2.4375 -0.546875 1.941406 -0.890625 1.515625 -1.328125 C 1.085938 -1.765625 0.75 -2.269531 0.5 -2.84375 C 0.257812 -3.414062 0.140625 -4.023438 0.140625 -4.671875 L 0.140625 -14.328125 C 0.585938 -14.222656 1.019531 -14.050781 1.4375 -13.8125 C 1.863281 -13.582031 2.242188 -13.265625 2.578125 -12.859375 C 2.910156 -12.460938 3.171875 -11.972656 3.359375 -11.390625 C 3.554688 -10.816406 3.65625 -10.144531 3.65625 -9.375 L 4.78125 -9.375 L 4.78125 -6.03125 L 3.75 -6.03125 L 3.75 -4.640625 C 3.75 -4.453125 3.796875 -4.273438 3.890625 -4.109375 C 3.984375 -3.941406 4.113281 -3.804688 4.28125 -3.703125 C 4.445312 -3.597656 4.628906 -3.546875 4.828125 -3.546875 Z M 4.828125 0.0625 "/></g></g></g><g fill="#dbd430" fill-opacity="1"><g transform="translate(80.270267, 26.120608)"><g><path d="M 0.25 0 L 0.25 -9.40625 C 0.9375 -9.257812 1.539062 -8.96875 2.0625 -8.53125 C 2.46875 -8.84375 2.921875 -9.082031 3.421875 -9.25 C 3.921875 -9.414062 4.425781 -9.5 4.9375 -9.5 C 5.582031 -9.5 6.1875 -9.375 6.75 -9.125 C 7.320312 -8.882812 7.820312 -8.550781 8.25 -8.125 C 8.675781 -7.695312 9.007812 -7.195312 9.25 -6.625 C 9.488281 -6.0625 9.609375 -5.453125 9.609375 -4.796875 L 9.609375 0 L 6.0625 0 L 6.0625 -4.8125 C 6.0625 -5.007812 6.003906 -5.1875 5.890625 -5.34375 C 5.785156 -5.507812 5.648438 -5.644531 5.484375 -5.75 C 5.316406 -5.851562 5.132812 -5.90625 4.9375 -5.90625 C 4.738281 -5.90625 4.550781 -5.851562 4.375 -5.75 C 4.207031 -5.65625 4.070312 -5.523438 3.96875 -5.359375 C 3.875 -5.191406 3.828125 -5.007812 3.828125 -4.8125 L 3.828125 0 Z M 0.25 0 "/></g></g></g><g fill="#dbd430" fill-opacity="1"><g transform="translate(90.51574, 26.120608)"><g><path d="M 9.140625 0 L 4.84375 0 C 4.195312 0 3.585938 -0.117188 3.015625 -0.359375 C 2.441406 -0.609375 1.9375 -0.953125 1.5 -1.390625 C 1.0625 -1.828125 0.71875 -2.328125 0.46875 -2.890625 C 0.226562 -3.460938 0.109375 -4.078125 0.109375 -4.734375 C 0.109375 -5.390625 0.226562 -6 0.46875 -6.5625 C 0.71875 -7.132812 1.0625 -7.640625 1.5 -8.078125 C 1.9375 -8.515625 2.441406 -8.851562 3.015625 -9.09375 C 3.585938 -9.34375 4.195312 -9.46875 4.84375 -9.46875 C 5.394531 -9.46875 5.925781 -9.398438 6.4375 -9.265625 C 6.957031 -9.128906 7.421875 -8.914062 7.828125 -8.625 C 8.242188 -8.34375 8.582031 -7.976562 8.84375 -7.53125 C 9.101562 -7.082031 9.253906 -6.539062 9.296875 -5.90625 C 9.328125 -5.539062 9.300781 -5.1875 9.21875 -4.84375 C 9.144531 -4.5 8.988281 -4.179688 8.75 -3.890625 L 4.890625 -3.890625 L 4.890625 -4.296875 C 5.140625 -4.285156 5.335938 -4.332031 5.484375 -4.4375 C 5.628906 -4.539062 5.71875 -4.664062 5.75 -4.8125 C 5.789062 -4.96875 5.785156 -5.117188 5.734375 -5.265625 C 5.679688 -5.421875 5.578125 -5.550781 5.421875 -5.65625 C 5.273438 -5.757812 5.082031 -5.8125 4.84375 -5.8125 C 4.65625 -5.8125 4.476562 -5.757812 4.3125 -5.65625 C 4.144531 -5.5625 4.015625 -5.429688 3.921875 -5.265625 C 3.828125 -5.109375 3.78125 -4.929688 3.78125 -4.734375 C 3.78125 -4.535156 3.828125 -4.351562 3.921875 -4.1875 C 4.023438 -4.019531 4.160156 -3.890625 4.328125 -3.796875 C 4.503906 -3.703125 4.691406 -3.65625 4.890625 -3.65625 L 9.140625 -3.65625 Z M 9.140625 0 "/></g></g></g><g fill="#dbd430" fill-opacity="1"><g transform="translate(100.33188, 26.120608)"><g><path d="M 0.203125 0 L 0.203125 -4.78125 C 0.203125 -5.414062 0.3125 -6.007812 0.53125 -6.5625 C 0.757812 -7.113281 1.082031 -7.601562 1.5 -8.03125 C 1.925781 -8.457031 2.4375 -8.789062 3.03125 -9.03125 C 3.632812 -9.269531 4.316406 -9.390625 5.078125 -9.390625 L 5.078125 -5.859375 C 4.609375 -5.859375 4.269531 -5.75 4.0625 -5.53125 C 3.851562 -5.3125 3.75 -5.054688 3.75 -4.765625 L 3.75 0 Z M 0.203125 0 "/></g></g></g></svg>